<?xml version="1.0" standalone="yes"?>
<svg xmlns="http://www.w3.org/2000/svg" width="512" height="512">
<path style="fill:#ffffff; stroke:none;" d="M0 0L0 147L1 147C4.07743 126.162 21.8815 107.434 42 101.921C53.5721 98.7492 66.1159 100 78 100L137 100C139.259 82.1384 146.691 66.1981 164 58.3125C179.875 51.0805 200.001 54 217 54L296 54C310.668 54 326.723 52.1341 341 56.0146C360.709 61.3716 373.945 79.9252 374 100L435 100C447.242 100 460.19 98.6671 472 102.52C490.507 108.558 509.239 126.827 511 147L512 147L512 0L0 0z"/>
<path style="fill:#010101; stroke:none;" d="M137 100L77 100C54.0691 100 33.3584 99.3223 16.0394 117.015C-4.52103 138.018 0 167.116 0 194L0 371C0 397.878 -3.28152 425.431 20 444.381C37.4089 458.551 56.7863 458 78 458L143 458C247.56 458 352.475 460.546 457 457.985C481.696 457.38 503.607 439.68 510.254 416C514.114 402.248 512 386.173 512 372L512 290L512 179C512 149.815 511.422 122.111 482 106.324C468.424 99.0396 453.884 100 439 100L374 100C373.988 81.589 364.017 63.7886 346 57.2338C331.607 51.9975 315.04 54 300 54L216 54C199.362 54 179.643 51.1536 164 57.8727C146.481 65.3977 138.432 81.8553 137 100z"/>
<path style="fill:#ffffff; stroke:none;" d="M182 80.4398C154.16 84.924 175.94 116.189 155.999 125.181C148.15 128.721 137.39 127 129 127L71 127C56.8108 127 43.3869 125.967 33.3287 138.004C20.5622 153.282 26 182.43 26 201L26 359C26 378.645 20.2004 409.171 37.0401 423.532C47.4888 432.443 60.2048 431 73 431L145 431L359 431L427 431C437.83 431 450.39 432.746 461 430.482C489.503 424.401 486 393.197 486 371L486 207C486 188.261 491.956 157.171 481.239 141.004C471.444 126.226 456.761 127 441 127C415.638 127 385.885 131.316 361 126.532C337.677 122.047 356.87 91.9147 337.996 82.5687C325.492 76.3769 305.62 80 292 80L220 80C207.666 80 194.186 78.477 182 80.4398z"/>
<path style="fill:#010101; stroke:none;" d="M426 158.441C395.262 163.241 401.142 210.777 432 206.696C463.561 202.522 457.419 153.533 426 158.441M242 159.428C222.918 162.161 205.226 168.128 189 178.695C176.129 187.078 164.877 198.222 156.355 211C110.225 280.161 147.36 377.34 229 396.113C243.744 399.503 259.068 399.928 274 397.728C291.102 395.209 307.399 388.988 322 379.772C410.647 323.82 383.039 178.615 279 160.921C267.066 158.891 254.075 157.699 242 159.428z"/>
<path style="fill:#ffffff; stroke:none;" d="M254 186.464C233.468 188.26 214.387 193.218 198 206.461C140.999 252.524 158.134 346.93 229 368.279C240.5 371.743 253.024 372.975 265 371.83C308.958 367.63 344.581 331.904 348.83 288C353.852 236.111 308.403 181.703 254 186.464M511 410C510.466 416.111 508.077 421.618 505.218 427C485.546 464.035 444.308 458 409 458L98 458C61.0029 458 7.67374 460.318 1 411L0 411L0 512L512 512L512 441L511 410z"/>
</svg>
