<?xml version="1.0" standalone="yes"?>
<svg xmlns="http://www.w3.org/2000/svg" width="512" height="512">
<path style="fill:#151f29; stroke:none;" d="M0 0L0 233L1 233C1.01807 205.713 10.5909 176.63 21.6944 152C50.0077 89.1948 102.561 39.8779 167 15.5764C187.585 7.81345 210.835 1.06107 233 1L211 0L164 0L0 0z"/>
<path style="fill:#d4def2; stroke:none;" d="M70 432C70 420.658 69.1493 409.063 72.159 398C83.031 358.037 126.596 355.585 159 343.023C177.233 335.955 193.905 324.534 212 317C193.609 364.416 211.486 415.845 229 461L230 461L240.127 421L243.346 404L231 388L231 387C237.4 382.624 249.16 367.449 257 367.484C264.299 367.516 275.048 381.857 281 386L281 387L268.603 404L271.873 421L282 461L283 461C300.478 415.936 318.362 364.342 300 317C318.395 324.658 335.407 336.215 354 343.293C386.327 355.601 428.998 358.431 439.842 398C442.88 409.088 442 420.618 442 432C463.833 416.578 480.513 384.07 490.85 360C527.451 274.773 516.634 174.106 460.116 100C381.615 -2.92957 232.331 -30.776 122 36.8109C88.8886 57.0945 61.3277 84.6543 40.0031 117C13.2742 157.543 0 205.711 0 254C0 304.426 12.5433 353.605 40.6674 396C48.8014 408.261 57.8663 423.382 70 432z"/>
<path style="fill:#151f29; stroke:none;" d="M279 0L279 1C369.417 1.24905 454.795 73.2281 490.306 152C501.421 176.656 510.925 205.682 511 233L512 233L512 0L279 0z"/>
<path style="fill:#4b81ab; stroke:none;" d="M209 73L209 74L287 74L263 73L209 73z"/>
<path style="fill:#427193; stroke:none;" d="M160 180C170.379 180 183.688 182.44 189.991 171.996C196.797 160.719 187.898 145.525 204.001 138.638C214.546 134.128 230.803 142.76 242 143.83C255.494 145.12 269.727 144.234 283 141.739C289.217 140.571 295.645 137.174 302 137.187C323.686 137.23 315.246 160.79 322.009 171.996C328.312 182.44 341.621 180 352 180L352 139C352 131.042 352.848 123.09 348.521 116.004C341.804 105.005 331.118 109.41 323.148 102.566C314.649 95.2678 319.492 82.3155 307 75.9992C295.984 70.4293 281.851 74 270 74C238.541 74 194.942 65.3878 172.468 93C153.58 116.206 160 152.093 160 180z"/>
<path style="fill:#4b81ab; stroke:none;" d="M299.667 73.3333L300.333 73.6667L299.667 73.3333M202 74L202 75L205 75L202 74M303 74L304 75L303 74M199 75L200 76L199 75M306 75L307 76L306 75M196 76L197 77L196 76M193 77L194 78L193 77M309 77L310 78L309 77M191 78L192 79L191 78M189 79L190 80L189 79M187 80L188 81L187 80M184 82L185 83L184 82M315 83L316 84L315 83M181 84L182 85L181 84M175 89L176 90L175 89M318 89L319 90L318 89M319.333 93.6667L319.667 94.3333L319.333 93.6667M171 94L172 95L171 94M170 95L171 96L170 95M168 98L169 99L168 98M167 100L168 101L167 100M320 100L321 101L320 100M323 103L324 104L323 103M325 104L326 105L325 104M333.667 105.333L334.333 105.667L333.667 105.333M337 106L338 107L337 106M339 107L340 108L339 107M163 108L164 109L163 108M342 109L343 110L342 109M162 111L163 112L162 111M161.333 114.667L161.667 115.333L161.333 114.667M347 114L348 115L347 114M349 117L350 118L349 117M160 119L160 122L161 122L160 119M350 119L351 120L350 119M351 122L352 123L351 122M207 137L208 138L207 137z"/>
<path style="fill:#be7884; stroke:none;" d="M208 137L208 138L212 138L208 137z"/>
<path style="fill:#4b81ab; stroke:none;" d="M212.667 137.333L213.333 137.667L212.667 137.333M298 137L299 138L298 137z"/>
<path style="fill:#be7884; stroke:none;" d="M299 137L300 138L299 137M303.667 137.333L304.333 137.667L303.667 137.333z"/>
<path style="fill:#4b81ab; stroke:none;" d="M305 137L306 138L305 137M203 138L204 139L203 138z"/>
<path style="fill:#be7884; stroke:none;" d="M204 138L205 139L204 138z"/>
<path style="fill:#4b81ab; stroke:none;" d="M216 138L217 139L216 138z"/>
<path style="fill:#be7884; stroke:none;" d="M295 138L296 139L295 138z"/>
<path style="fill:#4b81ab; stroke:none;" d="M308 138L309 139L308 138M201 139L202 140L201 139z"/>
<path style="fill:#be7884; stroke:none;" d="M219 139L220 140L219 139z"/>
<path style="fill:#4b81ab; stroke:none;" d="M291 139L292 140L291 139z"/>
<path style="fill:#be7884; stroke:none;" d="M292 139L293 140L292 139M310 139L311 140L310 139z"/>
<path style="fill:#4b81ab; stroke:none;" d="M223 140L224 141L223 140z"/>
<path style="fill:#be7884; stroke:none;" d="M288 140L289 141L288 140M226 141L227 142L226 141z"/>
<path style="fill:#4b81ab; stroke:none;" d="M227 141L228 142L227 141M284 141L285 142L284 141z"/>
<path style="fill:#be7884; stroke:none;" d="M285 141L286 142L285 141z"/>
<path style="fill:#4b81ab; stroke:none;" d="M197 142L198 143L197 142z"/>
<path style="fill:#be7884; stroke:none;" d="M231 142L232 143L231 142z"/>
<path style="fill:#4b81ab; stroke:none;" d="M232 142L233 143L232 142M278.667 142.333L279.333 142.667L278.667 142.333z"/>
<path style="fill:#be7884; stroke:none;" d="M280 142L281 143L280 142z"/>
<path style="fill:#4b81ab; stroke:none;" d="M314 142L315 143L314 142z"/>
<path style="fill:#be7884; stroke:none;" d="M237 143L238 144L237 143z"/>
<path style="fill:#4b81ab; stroke:none;" d="M238.667 143.333L239.333 143.667L238.667 143.333M272.667 143.333L273.333 143.667L272.667 143.333z"/>
<path style="fill:#be7884; stroke:none;" d="M274 143L275 144L274 143M245 144L245 145L249 145L245 144z"/>
<path style="fill:#4b81ab; stroke:none;" d="M249 144L249 145L263 145L249 144z"/>
<path style="fill:#be7884; stroke:none;" d="M263 144L263 145L267 145L263 144M195 145L196 146L195 145M193 149L194 150L193 149M318 149L319 150L318 149z"/>
<path style="fill:#4b81ab; stroke:none;" d="M192 153L192 166L193 166L192 153M319.333 153.667L319.667 154.333L319.333 153.667z"/>
<path style="fill:#be7884; stroke:none;" d="M319 155L319 166L320 166L319 155M192 166L193 167L192 166z"/>
<path style="fill:#4b81ab; stroke:none;" d="M191 169L192 170L191 169z"/>
<path style="fill:#be7884; stroke:none;" d="M320 169L321 170L320 169z"/>
<path style="fill:#4b81ab; stroke:none;" d="M190 171L191 172L190 171M321 171L322 172L321 171z"/>
<path style="fill:#be7884; stroke:none;" d="M189 173L190 174L189 173M322 173L323 174L322 173z"/>
<path style="fill:#4b81ab; stroke:none;" d="M188 174L189 175L188 174M323 174L324 175L323 174M187 175L188 176L187 175M324 175L325 176L324 175M186 176L187 177L186 176z"/>
<path style="fill:#be7884; stroke:none;" d="M325 176L326 177L325 176M185 177L186 178L185 177z"/>
<path style="fill:#4b81ab; stroke:none;" d="M183 178L184 179L183 178z"/>
<path style="fill:#be7884; stroke:none;" d="M328 178L329 179L328 178z"/>
<path style="fill:#4b81ab; stroke:none;" d="M180 179L181 180L180 179z"/>
<path style="fill:#be7884; stroke:none;" d="M181 179L182 180L181 179M331 179L332 180L331 179z"/>
<path style="fill:#151f29; stroke:none;" d="M0 279L0 512L233 512L233 511C144.941 510.757 58.6399 440.957 23.3086 364C15.393 346.759 9.16444 328.566 5.21065 310C3.16112 300.376 3.74146 287.896 0 279M511 279C510.932 303.566 502.906 329.415 493.799 352C466.992 418.482 411.871 471.205 345 496.424C324.133 504.293 300.457 510.985 278 511L278 512L512 512L512 348L512 301L511 279z"/>
<path style="fill:#4b81ab; stroke:none;" d="M212 316L213 317L212 316M299 316L300 317L299 316M210 317L211 318L210 317z"/>
<path style="fill:#427193; stroke:none;" d="M211 317C199.437 323.749 186.955 328.777 175 334.753C170.711 336.897 163.625 339.03 161.028 343.329C155.318 352.778 171.272 365.104 170.852 375C170.416 385.247 157.173 389.158 158.201 400C159.405 412.702 169.926 426.05 177.152 436C196.158 462.169 219.225 484.288 242 507L225 510L225 511L252 512C232.777 465.827 210.485 422.471 204.286 372C202.876 360.518 203.218 347.287 205.662 336C206.887 330.344 211.909 322.455 211 317M300 317C302.737 326.506 306.855 334.921 307.83 345C313.555 404.158 281.841 459.539 260 512C319.792 512 377.293 489.541 423 451.246C429.158 446.087 438.561 438.795 441.397 431C447.863 413.231 437.41 377.29 420 369C402.259 411.611 364.531 448.931 326 473.05C313.165 481.084 298.64 489.815 284 494C303.754 474.243 323.411 453.279 338.999 430C344.721 421.455 352.797 410.573 353.799 400C354.827 389.158 341.584 385.247 341.148 375C340.725 365.043 356.816 352.999 350.972 343.329C348.375 339.03 341.289 336.898 337 334.753C324.838 328.672 312.547 322.224 300 317z"/>
<path style="fill:#4b81ab; stroke:none;" d="M301 317L302 318L301 317M208 318L209 319L208 318M303 318L304 319L303 318M206 319L207 320L206 319M305 319L306 320L305 319M204 320L205 321L204 320M307 320L308 321L307 320M202 321L203 322L202 321M309 321L310 322L309 321M200 322L201 323L200 322M311 322L312 323L311 322M198 323L199 324L198 323M209 323L210 324L209 323M302 323L303 324L302 323M313 323L314 324L313 323M196 324L197 325L196 324M315 324L316 325L315 324M194 325L195 326L194 325M208 325L209 326L208 325M303 325L304 326L303 325M317 325L318 326L317 325M192 326L193 327L192 326M319 326L320 327L319 326M190 327L191 328L190 327M188 328L189 329L188 328M207 328L208 329L207 328M304 328L305 329L304 328M186 329L187 330L186 329z"/>
<path style="fill:#be7884; stroke:none;" d="M304 329L305 330L304 329z"/>
<path style="fill:#4b81ab; stroke:none;" d="M206 332L207 333L206 332M305 332L306 333L305 332M334 333L335 334L334 333M336 334L337 335L336 334M338 335L339 336L338 335M171 336L172 337L171 336M205 336L206 337L205 336M306 336L307 337L306 336M340 336L341 337L340 336M169 337L170 338L169 337z"/>
<path style="fill:#be7884; stroke:none;" d="M205 337L206 338L205 337M306 337L307 338L306 337z"/>
<path style="fill:#4b81ab; stroke:none;" d="M342 337L343 338L342 337M167 338L168 339L167 338M344 338L345 339L344 338M165 339L166 340L165 339M346 339L347 340L346 339M163 340L164 341L163 340M348 340L349 341L348 340M162 341L163 342L162 341M349 341L350 342L349 341M204.333 342.667L204.667 343.333L204.333 342.667M307.333 342.667L307.667 343.333L307.333 342.667M351 342L352 343L351 342M242 507C236.639 499.41 228.472 493.727 222.039 487C199.841 463.785 167.242 434.274 158.789 402C155.857 390.803 169.997 386.362 170.891 376C171.932 363.937 160.108 355.11 160 343C149.648 344.529 138.942 349.032 129 352.333C98.5355 362.451 70.1794 375.961 70.0008 413C69.9727 418.81 68.3754 427.695 71.0278 433C77.7048 446.354 96.932 458.44 109 466.656C139.983 487.75 184.182 510.957 223 510.161C229.312 510.032 235.733 507.809 242 507M352 343C351.891 355.199 340.07 363.966 341.109 376C342.003 386.362 356.143 390.803 353.211 402C343.312 439.795 305.305 463.754 284 494C298.724 491.384 314.475 480.89 327 473.05C366.055 448.603 403.053 411.106 421 368C402.619 355.837 373.855 346.228 352 343z"/>
<path style="fill:#be7884; stroke:none;" d="M307 344L308 345L307 344z"/>
<path style="fill:#4b81ab; stroke:none;" d="M203 357L204 358L203 357z"/>
<path style="fill:#be7884; stroke:none;" d="M231 387L231 388C234.92 392.502 242.043 398.941 243.136 405C243.955 409.54 241.226 415.609 240.127 420C236.906 432.864 230.249 447.733 229.843 461C229.461 473.516 241.734 491.98 247.247 503C249.514 507.533 252.406 514.126 258.787 511.396C262.683 509.729 264.511 503.524 266.244 500C271.727 488.848 277.916 476.917 281.52 465C287.169 446.32 265.926 423.931 268.813 405C269.769 398.732 277.157 391.843 281 387C277.169 381.607 263.993 366.878 257 366.867C249.363 366.855 236.321 381.907 231 387M307 370L308 371L307 370z"/>
<path style="fill:#4b81ab; stroke:none;" d="M204 371L204 374L205 374L204 371M307.333 371.667L307.667 372.333L307.333 371.667M426 374L427 375L426 374M427 375L428 376L427 375M428 376L429 377L428 376M429 377L430 378L429 377M205.333 378.667L205.667 379.333L205.333 378.667M306.333 378.667L306.667 379.333L306.333 378.667M430 378L431 379L430 378M431 380L432 381L431 380M432 381L433 382L432 381M433 383L434 384L433 383M305 384L305 387L306 387L305 384M206.333 385.667L206.667 386.333L206.333 385.667M434 385L435 386L434 385M435 386L436 387L435 386M436.333 388.667L436.667 389.333L436.333 388.667M207.333 390.667L207.667 391.333L207.333 390.667M304.333 390.667L304.667 391.333L304.333 390.667M437 391L438 392L437 391M438.333 393.667L438.667 394.333L438.333 393.667M208.333 395.667L208.667 396.333L208.333 395.667M303.333 395.667L303.667 396.333L303.333 395.667M439.333 396.667L439.667 397.333L439.333 396.667M209.333 400.667L209.667 401.333L209.333 400.667M302 400L303 401L302 400M440.333 400.667L440.667 401.333L440.333 400.667M210.333 404.667L210.667 405.333L210.333 404.667M301 404L302 405L301 404M441 405L441 411L442 411L441 405M211.333 408.667L211.667 409.333L211.333 408.667M300 408L301 409L300 408M212 412L213 413L212 412M299 412L300 413L299 412M298.333 415.667L298.667 416.333L298.333 415.667M213 416L214 417L213 416M214 419L215 420L214 419M297 419L298 420L297 419M215.333 422.667L215.667 423.333L215.333 422.667M296 422L297 423L296 422M295.333 425.667L295.667 426.333L295.333 425.667M216 426L217 427L216 426M217 429L218 430L217 429M294 429L295 430L294 429M218 432L219 433L218 432M293 432L294 433L293 432M441 432L442 433L441 432M440 433L441 434L440 433M439 434L440 435L439 434M219 435L220 436L219 435M292 435L293 436L292 435M438 435L439 436L438 435M437 436L438 437L437 436M436 437L437 438L436 437M220 438L221 439L220 438M291 438L292 439L291 438M221 441L222 442L221 441M290 441L291 442L290 441M222 443L223 444L222 443M289 443L290 444L289 443M223 446L224 447L223 446M288 446L289 447L288 446M224 449L225 450L224 449M287 449L288 450L287 449M225 452L226 453L225 452M286 452L287 453L286 452M226 454L227 455L226 454M285 454L286 455L285 454M227 457L228 458L227 457M284 457L285 458L284 457M228 459L229 460L228 459M283 459L284 460L283 459M229 462L230 463L229 462M282 462L283 463L282 462M390 474L391 475L390 474M376 482L377 483L376 482M366 487L367 488L366 487M364 488L365 489L364 488M283 494L284 495L283 494M330 501L331 502L330 501M233 511L233 512L236 512L233 511z"/>
</svg>
