<?xml version="1.0" standalone="yes"?>
<svg xmlns="http://www.w3.org/2000/svg" width="512" height="512">
<path style="fill:#ffffff; stroke:none;" d="M0 0L0 182L17 182L17 94C17 78.5561 14.9001 62.5923 23.6991 49C30.9725 37.7643 40.3571 36.1322 50.7762 29.6975C55.4478 26.8125 57.2832 20.3993 62.0147 17.0548C74.9066 7.94183 92.2906 12.275 100.034 26C116.883 55.8646 68.7228 79.5605 53 48C34.7762 54.318 35 69.6264 35 86L35 182L60 182C60 203.534 60.8011 224.572 75.3256 242C105.853 278.631 169.769 275.543 194.547 234C204.367 217.536 204 200.498 204 182L221 182L221 88C221 70.9326 221.222 55.6388 203 48C198.148 56.5146 190.342 63.5778 180 63.8704C159.775 64.4425 146.576 40.6545 157.85 24.0008C166.407 11.3612 182.962 8.76273 194.961 17.9275C199.14 21.1198 201.023 26.9923 205.274 29.6975C214.976 35.8717 223.934 37.838 231.211 48C240.902 61.531 239 78.282 239 94L239 182L256 182C256 195.582 257.14 209.662 254.112 223C244.053 267.303 207.581 304.78 163 315C163 335.623 165.063 368.705 137 371C137 401.768 141.691 430.247 163.171 453.999C201.018 495.852 267.877 488.493 298.304 442C316.043 414.894 315 386.05 315 355L315 250C315 227.863 313.542 205.698 322.865 185C345.637 134.443 413.625 126.779 445.96 172C454.169 183.481 459.466 196.901 460.83 211C461.44 217.298 458.863 226.945 461.603 232.697C463.707 237.111 478.426 239.83 483 242.615C497.168 251.24 508.736 266.267 511 283L512 283L512 0L0 0z"/>
<path style="fill:#010101; stroke:none;" d="M17 182L0 182C0 195.897 -1.21013 210.354 1.88812 224C11.396 265.877 48.4282 308.993 93 315C93 335.569 90.362 369.751 119 371C119 406.858 125.262 439.468 150.17 467C193.224 514.59 268.673 508.42 307.905 460C333.082 428.927 333 392.798 333 355L333 260C333 237.88 329.586 212.449 339.81 192C356.467 158.685 400.405 147.368 426.561 177.039C441.795 194.321 443 213.127 443 235C411.8 235.665 389.355 269.911 392.17 299C394.432 322.381 409.065 341.962 431 350.536C474.706 367.62 516.543 329.025 511.826 285C509.916 267.17 498.145 250.969 483 242.015C477.954 239.031 465.027 237.339 462.028 232.697C458.893 227.846 461.206 217.6 460.961 212C460.526 202.098 457.489 191.888 453.216 183C432.344 139.581 374.287 126.919 339.039 161.09C314.17 185.2 315 217.038 315 249L315 344C315 387.047 316.982 428.346 282 459.829C275.711 465.489 268.577 470.266 261 474.03C220.147 494.323 171.489 473.539 150.312 435C139.085 414.569 137 393.861 137 371C165.638 369.751 163 335.569 163 315C207.638 308.432 244.517 266.262 254.112 224C257.21 210.354 256 195.897 256 182L239 182L239 94C239 78.3932 240.999 61.6741 231.895 48C224.614 37.0634 214.688 36.2079 205.274 29.1458C200.733 25.7394 199.042 19.8822 193.985 16.5486C181.406 8.25519 162.955 12.0473 156.139 26C140.805 57.3907 190.523 80.4339 203 48C222.759 59.709 221 75.5078 221 96L221 182L204 182C204 200.182 204.191 216.831 194.547 233C169.148 275.584 106.505 278.416 75.3256 241C61.0503 223.87 60 203.204 60 182L35 182L35 92C35 73.1053 33.5743 57.5006 53 48C63.7412 80.3807 114.971 58.9 101.034 27C94.5637 12.1904 75.0805 7.75711 62.0147 16.3881C56.9322 19.7455 55.4013 25.7788 50.7762 29.1458C41.0136 36.2531 31.0243 36.688 23.6991 48C14.7471 61.8241 17 78.2937 17 94L17 182z"/>
<path style="fill:#ffffff; stroke:none;" d="M74.044 30.7469C65.295 34.1534 70.0933 48.2172 78.9815 45.2145C88.536 41.9868 83.5538 27.0443 74.044 30.7469M176.108 30.8619C167.479 34.6391 173.115 48.5726 181.906 44.9753C191.175 41.1825 185.333 26.8235 176.108 30.8619M119 371C90.9373 368.705 93 335.623 93 315C49.5648 306.011 1.96764 261.632 1 215L0 215L0 512L512 512L512 305L511 305C509.958 316.935 502.373 328.75 493.985 336.961C486.905 343.892 478.432 348.727 469 351.652C432.583 362.946 395.727 334.782 392.17 298C389.421 269.579 413.32 236.356 443 235C443 212.994 442.226 193.378 426.561 176.09C400.647 147.491 356.165 158.291 339.81 191C329.586 211.449 333 236.88 333 259L333 354C333 391.798 333.082 427.927 307.905 459C264.843 512.146 185.678 513.244 143.503 458C123.693 432.051 119 402.713 119 371M18 200C18 212.188 19.6864 223.595 24.2037 235C58.4935 321.571 193.809 323.964 230.573 238C235.842 225.679 238 213.323 238 200L222 200C222 211.041 220.199 221.833 215.691 232C185.049 301.105 83.305 303.307 50.2585 235C45.0463 224.226 42.2469 211.962 42 200L18 200M445 252.465C390.432 262.286 406.984 345.158 461 334.905C513.634 324.914 497.261 243.059 445 252.465z"/>
<path style="fill:#010101; stroke:none;" d="M446 268.529C413.332 276.028 425.412 326.8 458 319.319C491.12 311.717 479.239 260.899 446 268.529z"/>
<path style="fill:#ffffff; stroke:none;" d="M449.055 287.032C440.163 291.707 447.155 305.285 455.811 300.529C464.067 295.992 457.538 282.571 449.055 287.032M111 319C111 327.43 108.251 347.013 117.108 351.972C120.41 353.821 125.359 353 129 353C133.345 353 138.294 353.685 141.297 349.852C147.142 342.393 145 327.857 145 319L111 319z"/>
</svg>
